<?xml version="1.0" ?><svg id="Flat" viewBox="0 0 512 512" xmlns="http://www.w3.org/2000/svg"><defs><style>.cls-1{fill:#2c2c33;}.cls-2{fill:#fe4f60;}.cls-3{fill:#42434d;}.cls-4{fill:#d6f4fc;}.cls-5{fill:#4d4e59;}.cls-6{fill:#ff6d7a;}.cls-7{fill:#e8f8fc;}</style></defs><title/><g data-name="20. Napkin is flying in a bucket" id="_20._Napkin_is_flying_in_a_bucket"><path class="cls-1" d="M388.77,96.92a8,8,0,0,1-5.09-10.11l7.15-21.63A13.85,13.85,0,0,0,382,47.66L340.48,33.94A13.88,13.88,0,0,0,323,42.76l-7.14,21.63a8,8,0,0,1-15.2-5l7.14-21.63a29.92,29.92,0,0,1,37.74-19L387,32.46A29.86,29.86,0,0,1,406,70.2l-7.15,21.63A8,8,0,0,1,388.77,96.92Z"/><path class="cls-2" d="M431.86,245.61a8,8,0,0,1,7.91,9.19c-8.43,56-2.18,14.46-31.34,208.38A29.15,29.15,0,0,1,379.6,488h-132a29.15,29.15,0,0,1-28.83-24.82c-29.16-193.92-22.91-152.41-31.34-208.38a8,8,0,0,1,7.91-9.19Z"/><path class="cls-3" d="M443.19,106.48a29.15,29.15,0,0,1,18.54,36.83l-6.06,18.36a8,8,0,0,1-10.11,5.09l-227.07-75a8,8,0,0,1-5.09-10.11l6.07-18.36A29.16,29.16,0,0,1,256.3,44.72C378,84.94,334,70.38,443.19,106.48Z"/><path class="cls-4" d="M137.43,118.3,147,140a8.8,8.8,0,0,1-.83,8.59L138,160.37a8.82,8.82,0,0,1-9,3.61c-15.63-3.14-16.05-3.56-18.88-2.65l-19.31,6.2A8.76,8.76,0,0,1,84,166.9l-15.33-8.25A8.8,8.8,0,0,1,64,150.9V139.68a8.82,8.82,0,0,0-6.57-8.52l-3.86-1A8.82,8.82,0,0,1,47,121.63V108.87a8.81,8.81,0,0,1,8.17-8.79L75.51,98.6a8.81,8.81,0,0,0,8.17-8.79A8.81,8.81,0,0,1,92.49,81h17.62a8.8,8.8,0,0,1,8.79,9.34l-.76,12.52a8.83,8.83,0,0,0,7.07,9.18l5.88,1.17A8.82,8.82,0,0,1,137.43,118.3Z"/><path class="cls-5" d="M444.49,106.94c9.15,3.51,4,17.34-5.28,14.27L274.3,66.72a29.16,29.16,0,0,0-36.83,18.54l-1.41,4.26a7.61,7.61,0,0,1-9.62,4.84l-7.95-2.63a8,8,0,0,1-5.09-10.11l6.07-18.36A29.16,29.16,0,0,1,256.3,44.72C451.65,109.28,443.15,106.43,444.49,106.94Z"/><path class="cls-6" d="M431.86,245.61a8,8,0,0,1,7.91,9.19l-4.64,30.81H235.29a8,8,0,0,0-7.91,9.19c2.42,16.05,15,99.49,24.61,163.6,3.21,21.38-28.78,27.39-33,6.19-.32-1.57,1.11,7.47-31.59-209.79a8,8,0,0,1,7.91-9.19Z"/><path class="cls-3" d="M431.86,245.61a8,8,0,0,1,7.91,9.19l-6.51,43.25H193.89l-6.51-43.25a8,8,0,0,1,7.91-9.19Z"/><path class="cls-5" d="M402.29,245.65c25.77,1.14,24.46,40-1.34,40H235.29a8,8,0,0,0-7.91,9.19l.49,3.25h-34l-6.51-43.25a8,8,0,0,1,7.91-9.19C196.61,245.61,401.06,245.59,402.29,245.65Z"/><path class="cls-7" d="M118.9,90.34l-.52,8.43c-.33,5.41-4.7,5-4.7,11a8.81,8.81,0,0,1-8.17,8.79l-20.34,1.48A8.81,8.81,0,0,0,77,128.87v12.76a8.82,8.82,0,0,0,6.57,8.52l3.86,1A8.82,8.82,0,0,1,94,159.68a7.58,7.58,0,0,1-10.9,6.81c-2.87-1.4-7.1-3.87-14.47-7.84A8.8,8.8,0,0,1,64,150.9V139.68a8.82,8.82,0,0,0-6.57-8.52l-3.86-1A8.82,8.82,0,0,1,47,121.63V108.87a8.81,8.81,0,0,1,8.17-8.79L75.51,98.6a8.81,8.81,0,0,0,8.17-8.79A8.8,8.8,0,0,1,92.49,81h17.62A8.8,8.8,0,0,1,118.9,90.34Z"/></g></svg>