<?xml version="1.0" ?><svg id="Layer_1" style="enable-background:new 0 0 85.271 114.521;" version="1.1" viewBox="0 0 85.271 114.521" xml:space="preserve" xmlns="http://www.w3.org/2000/svg" xmlns:xlink="http://www.w3.org/1999/xlink"><g><path d="M11.271,114.521H74c6.225,0,11.271-5.046,11.271-11.271V39.656L45.568,0L11.271,0   C5.046,0,0,5.046,0,11.271l0,91.979C0,109.475,5.046,114.521,11.271,114.521z" style="fill:#FDF2CE;"/><g><path d="M16.38,99.898c0-0.213,0.085-0.469,0.256-0.768l5.536-9.024l-5.344-8.992    c-0.192-0.32-0.288-0.618-0.288-0.896c0-0.533,0.282-0.992,0.848-1.376c0.565-0.384,1.168-0.576,1.808-0.576    c0.597,0,1.056,0.299,1.376,0.896l4.352,7.84l4.352-7.84c0.341-0.597,0.811-0.896,1.408-0.896c0.64,0,1.242,0.192,1.808,0.576    c0.565,0.384,0.848,0.843,0.848,1.376c0,0.278-0.096,0.576-0.288,0.896l-5.344,8.992l5.536,9.024    c0.149,0.277,0.224,0.534,0.224,0.768c0,0.555-0.299,1.04-0.896,1.456c-0.597,0.416-1.206,0.624-1.824,0.624    c-0.512,0-0.886-0.224-1.12-0.672l-4.704-8.224l-4.672,8.224c-0.256,0.448-0.64,0.672-1.152,0.672c-0.598,0-1.2-0.208-1.808-0.624    S16.38,100.453,16.38,99.898z" style="fill:#7FD077;"/><path d="M37.436,100.506v-20.8c0-0.427,0.203-0.747,0.608-0.96s0.896-0.32,1.472-0.32    s1.066,0.107,1.472,0.32c0.405,0.213,0.608,0.533,0.608,0.96V98.17h7.808c0.384,0,0.688,0.182,0.912,0.544    c0.224,0.363,0.336,0.79,0.336,1.28c0,0.491-0.112,0.917-0.336,1.28c-0.224,0.363-0.528,0.544-0.912,0.544H39.26    c-0.491,0-0.917-0.117-1.28-0.352C37.617,101.232,37.436,100.912,37.436,100.506z" style="fill:#7FD077;"/><path d="M53.372,98.138c0-0.49,0.187-0.986,0.56-1.488c0.373-0.501,0.794-0.752,1.264-0.752    c0.277,0,0.592,0.133,0.944,0.399s0.693,0.56,1.024,0.881c0.331,0.322,0.805,0.615,1.424,0.881    c0.619,0.266,1.301,0.399,2.048,0.399c1.024,0,1.877-0.235,2.56-0.704s1.024-1.163,1.024-2.08c0-0.64-0.187-1.21-0.56-1.712    c-0.374-0.501-0.864-0.917-1.472-1.248c-0.608-0.331-1.275-0.65-2-0.96c-0.726-0.309-1.456-0.656-2.192-1.04    c-0.736-0.384-1.408-0.816-2.016-1.296s-1.099-1.12-1.472-1.92c-0.374-0.8-0.56-1.712-0.56-2.736c0-1.147,0.229-2.16,0.688-3.037    c0.458-0.877,1.072-1.559,1.84-2.046c0.768-0.487,1.589-0.844,2.464-1.072c0.875-0.227,1.803-0.341,2.784-0.341    c0.554,0,1.141,0.038,1.76,0.115c0.619,0.077,1.274,0.203,1.968,0.378c0.693,0.176,1.258,0.45,1.696,0.822    c0.437,0.372,0.656,0.811,0.656,1.314c0,0.475-0.15,0.966-0.448,1.474c-0.299,0.508-0.704,0.761-1.216,0.761    c-0.192,0-0.715-0.203-1.568-0.608c-0.854-0.405-1.803-0.608-2.848-0.608c-1.152,0-2.043,0.219-2.672,0.656    c-0.63,0.438-0.944,1.04-0.944,1.808c0,0.619,0.256,1.157,0.768,1.616c0.512,0.459,1.146,0.832,1.904,1.12    s1.579,0.651,2.464,1.088c0.885,0.438,1.707,0.912,2.464,1.424c0.757,0.512,1.392,1.253,1.904,2.224    c0.512,0.971,0.768,2.107,0.768,3.408c0,2.188-0.699,3.876-2.096,5.065c-1.397,1.189-3.238,1.783-5.52,1.783    c-2.027,0-3.766-0.416-5.216-1.248S53.372,99.12,53.372,98.138z" style="fill:#7FD077;"/></g><path d="M57.048,39.656h28.223L45.568,0l0.033,28.223C45.609,34.539,50.731,39.656,57.048,39.656z" style="fill:#B8B097;"/><path d="M59.321,37.383c6.417,0.333,25.95,2.273,25.95,2.273L45.568,0c0,0,1.767,19.496,2.306,25.95   C48.4,32.245,53.013,37.057,59.321,37.383z" style="fill:#7FD077;"/><line style="fill:#FDFFEE;" x1="85.271" x2="45.568" y1="39.656" y2="0"/></g></svg>