<?xml version="1.0" ?><!DOCTYPE svg  PUBLIC '-//W3C//DTD SVG 1.1//EN'  'http://www.w3.org/Graphics/SVG/1.1/DTD/svg11.dtd'><svg height="48px" id="Layer_1" style="enable-background:new 0 0 64 48;" version="1.1" viewBox="0 0 64 48" width="64px" xml:space="preserve" xmlns="http://www.w3.org/2000/svg" xmlns:xlink="http://www.w3.org/1999/xlink"><g id="Container_1_"><g><path d="M58,8H6c-1.104,0-2,0.896-2,2v23.999C4,35.104,4.896,36,6,36h52c1.104,0,2-0.896,2-2.001V10    C60,8.896,59.104,8,58,8z" style="fill:#B3B3B3;"/></g></g><g id="Paper_Tray"><g><path d="M42,0H6C4.896,0,4,0.895,4,2v12c0,1.104,0.896,2,2,2h36c1.104,0,2-0.896,2-2V2    C44,0.895,43.104,0,42,0z" style="fill:#4D4D4D;"/></g></g><g id="Shape_2_"><g><path d="M42,32H6c-1.104,0-2,0.895-2,1.999V46c0,1.104,0.896,2,2,2h36c1.104,0,2-0.896,2-2V33.999    C44,32.895,43.104,32,42,32z" style="fill:#999999;"/></g></g><g id="Body_10_"><g><path d="M60,12H4c-2.21,0-4,1.79-4,4v24c0,2.208,1.79,4,4,4v-4    c0-2.21,1.791-4,4-4h32c2.209,0,4,1.79,4,4v4h16c2.209,0,4-1.792,4-4V16C64,13.79,62.209,12,60,12z" style="fill-rule:evenodd;clip-rule:evenodd;fill:#E6E6E6;"/></g></g><g id="Grey_Led"><g><circle cx="54" cy="22" r="2" style="fill:#808080;"/></g></g><g id="Green_Led"><g><circle cx="46" cy="22" r="2" style="fill:#88C057;"/></g></g><g/><g/><g/><g/><g/><g/><g/><g/><g/><g/><g/><g/><g/><g/><g/></svg>