<?xml version="1.0" ?><svg height="19.998047" id="svg8" version="1.1" viewBox="0 0 5.2932214 5.2911501" width="20.005877" xmlns="http://www.w3.org/2000/svg" xmlns:cc="http://creativecommons.org/ns#" xmlns:dc="http://purl.org/dc/elements/1.1/" xmlns:rdf="http://www.w3.org/1999/02/22-rdf-syntax-ns#" xmlns:svg="http://www.w3.org/2000/svg"><defs id="defs2"/><g id="layer3" transform="translate(-17.726567,-0.52916668)"><g id="FLAT-2"><path d="m 18.521351,0.52916668 c -0.435242,0 -0.794784,0.35799137 -0.794784,0.79323322 0,0.435247 0.359548,0.7947836 0.794784,0.7947836 0.435236,0 0.793233,-0.3595366 0.793233,-0.7947836 0,-0.43524185 -0.35799,-0.79323322 -0.793233,-0.79323322 z m 0,1.85156662 c -0.435242,0 -0.794784,0.3600585 -0.794784,0.7953002 0,0.4352473 0.359548,0.7927166 0.794784,0.7927166 0.435236,0 0.793233,-0.3574693 0.793233,-0.7927166 0,-0.4352417 -0.35799,-0.7953002 -0.793233,-0.7953002 z m 0,1.8515667 c -0.435242,0 -0.794784,0.3600582 -0.794784,0.7953002 0,0.435247 0.359548,0.7927165 0.794784,0.7927165 0.435236,0 0.793233,-0.3574695 0.793233,-0.7927165 0,-0.435242 -0.35799,-0.7953002 -0.793233,-0.7953002 z" id="path1192" style="color:#000000;font-style:normal;font-variant:normal;font-weight:normal;font-stretch:normal;font-size:medium;line-height:normal;font-family:sans-serif;font-variant-ligatures:normal;font-variant-position:normal;font-variant-caps:normal;font-variant-numeric:normal;font-variant-alternates:normal;font-variant-east-asian:normal;font-feature-settings:normal;font-variation-settings:normal;text-indent:0;text-align:start;text-decoration:none;text-decoration-line:none;text-decoration-style:solid;text-decoration-color:#000000;letter-spacing:normal;word-spacing:normal;text-transform:none;writing-mode:lr-tb;direction:ltr;text-orientation:mixed;dominant-baseline:auto;baseline-shift:baseline;text-anchor:start;white-space:normal;shape-padding:0;shape-margin:0;inline-size:0;clip-rule:nonzero;display:inline;overflow:visible;visibility:visible;isolation:auto;mix-blend-mode:normal;color-interpolation:sRGB;color-interpolation-filters:linearRGB;solid-color:#000000;solid-opacity:1;vector-effect:none;fill:#82bbfb;fill-opacity:1;fill-rule:nonzero;stroke:none;stroke-width:0.529167;stroke-linecap:round;stroke-linejoin:round;stroke-miterlimit:4;stroke-dasharray:none;stroke-dashoffset:0;stroke-opacity:1;color-rendering:auto;image-rendering:auto;shape-rendering:auto;text-rendering:auto;enable-background:accumulate;stop-color:#000000"/><path d="m 20.1073,1.0588501 a 0.2645835,0.2645835 0 0 0 -0.26355,0.2635498 0.2645835,0.2645835 0 0 0 0.26355,0.2656169 h 2.646351 A 0.2645835,0.2645835 0 0 0 23.019784,1.3223999 0.2645835,0.2645835 0 0 0 22.753651,1.0588501 Z m 0,1.8510499 a 0.2645835,0.2645835 0 0 0 -0.26355,0.2661335 0.2645835,0.2645835 0 0 0 0.26355,0.2635499 h 2.646351 A 0.2645835,0.2645835 0 0 0 23.019784,3.1760335 0.2645835,0.2645835 0 0 0 22.753651,2.9099 Z m 0,1.8515667 a 0.2645835,0.2645835 0 0 0 -0.26355,0.2661335 0.2645835,0.2645835 0 0 0 0.26355,0.2635499 h 2.646351 A 0.2645835,0.2645835 0 0 0 23.019784,5.0276002 0.2645835,0.2645835 0 0 0 22.753651,4.7614667 Z" id="path1150" style="color:#000000;font-style:normal;font-variant:normal;font-weight:normal;font-stretch:normal;font-size:medium;line-height:normal;font-family:sans-serif;font-variant-ligatures:normal;font-variant-position:normal;font-variant-caps:normal;font-variant-numeric:normal;font-variant-alternates:normal;font-variant-east-asian:normal;font-feature-settings:normal;font-variation-settings:normal;text-indent:0;text-align:start;text-decoration:none;text-decoration-line:none;text-decoration-style:solid;text-decoration-color:#000000;letter-spacing:normal;word-spacing:normal;text-transform:none;writing-mode:lr-tb;direction:ltr;text-orientation:mixed;dominant-baseline:auto;baseline-shift:baseline;text-anchor:start;white-space:normal;shape-padding:0;shape-margin:0;inline-size:0;clip-rule:nonzero;display:inline;overflow:visible;visibility:visible;isolation:auto;mix-blend-mode:normal;color-interpolation:sRGB;color-interpolation-filters:linearRGB;solid-color:#000000;solid-opacity:1;vector-effect:none;fill:#007ff9;fill-opacity:1;fill-rule:nonzero;stroke:none;stroke-width:0.529167;stroke-linecap:round;stroke-linejoin:round;stroke-miterlimit:4;stroke-dasharray:none;stroke-dashoffset:0;stroke-opacity:1;color-rendering:auto;image-rendering:auto;shape-rendering:auto;text-rendering:auto;enable-background:accumulate;stop-color:#000000"/><path d="m 18.521351,0.52916668 c -0.435242,0 -0.794784,0.35799137 -0.794784,0.79323322 0,0.435247 0.359548,0.7947836 0.794784,0.7947836 0.435236,0 0.793233,-0.3595366 0.793233,-0.7947836 0,-0.43524185 -0.35799,-0.79323322 -0.793233,-0.79323322 z m 0,1.85156662 c -0.435242,0 -0.794784,0.3600585 -0.794784,0.7953002 0,0.4352473 0.359548,0.7927166 0.794784,0.7927166 0.435236,0 0.793233,-0.3574693 0.793233,-0.7927166 0,-0.4352417 -0.35799,-0.7953002 -0.793233,-0.7953002 z m 0,1.8515667 c -0.435242,0 -0.794784,0.3600582 -0.794784,0.7953002 0,0.435247 0.359548,0.7927165 0.794784,0.7927165 0.435236,0 0.793233,-0.3574695 0.793233,-0.7927165 0,-0.435242 -0.35799,-0.7953002 -0.793233,-0.7953002 z" id="path1298" style="color:#000000;font-style:normal;font-variant:normal;font-weight:normal;font-stretch:normal;font-size:medium;line-height:normal;font-family:sans-serif;font-variant-ligatures:normal;font-variant-position:normal;font-variant-caps:normal;font-variant-numeric:normal;font-variant-alternates:normal;font-variant-east-asian:normal;font-feature-settings:normal;font-variation-settings:normal;text-indent:0;text-align:start;text-decoration:none;text-decoration-line:none;text-decoration-style:solid;text-decoration-color:#000000;letter-spacing:normal;word-spacing:normal;text-transform:none;writing-mode:lr-tb;direction:ltr;text-orientation:mixed;dominant-baseline:auto;baseline-shift:baseline;text-anchor:start;white-space:normal;shape-padding:0;shape-margin:0;inline-size:0;clip-rule:nonzero;display:inline;overflow:visible;visibility:visible;isolation:auto;mix-blend-mode:normal;color-interpolation:sRGB;color-interpolation-filters:linearRGB;solid-color:#000000;solid-opacity:1;vector-effect:none;fill:#82bbfb;fill-opacity:1;fill-rule:nonzero;stroke:none;stroke-width:0.529167;stroke-linecap:round;stroke-linejoin:round;stroke-miterlimit:4;stroke-dasharray:none;stroke-dashoffset:0;stroke-opacity:1;color-rendering:auto;image-rendering:auto;shape-rendering:auto;text-rendering:auto;enable-background:accumulate;stop-color:#000000"/><path d="m 72.945312,19.550781 a 17.202391,32.202391 69.881832 0 1 -5.679687,0.666016 c 0.472121,1.044514 1.523992,1.78125 2.736328,1.78125 1.457407,0 2.682191,-1.061396 2.943359,-2.447266 z" id="path1307" style="color:#000000;font-style:normal;font-variant:normal;font-weight:normal;font-stretch:normal;font-size:medium;line-height:normal;font-family:sans-serif;font-variant-ligatures:normal;font-variant-position:normal;font-variant-caps:normal;font-variant-numeric:normal;font-variant-alternates:normal;font-variant-east-asian:normal;font-feature-settings:normal;font-variation-settings:normal;text-indent:0;text-align:start;text-decoration:none;text-decoration-line:none;text-decoration-style:solid;text-decoration-color:#000000;letter-spacing:normal;word-spacing:normal;text-transform:none;writing-mode:lr-tb;direction:ltr;text-orientation:mixed;dominant-baseline:auto;baseline-shift:baseline;text-anchor:start;white-space:normal;shape-padding:0;shape-margin:0;inline-size:0;clip-rule:nonzero;display:inline;overflow:visible;visibility:visible;isolation:auto;mix-blend-mode:normal;color-interpolation:sRGB;color-interpolation-filters:linearRGB;solid-color:#000000;solid-opacity:1;vector-effect:none;fill:#65a3fc;fill-opacity:1;fill-rule:nonzero;stroke:none;stroke-width:2;stroke-linecap:round;stroke-linejoin:round;stroke-miterlimit:4;stroke-dasharray:none;stroke-dashoffset:0;stroke-opacity:1;color-rendering:auto;image-rendering:auto;shape-rendering:auto;text-rendering:auto;enable-background:accumulate;stop-color:#000000" transform="scale(0.26458334)"/><path d="m 79.498047,17.996094 a 17.202391,32.202391 69.881832 0 1 -4.486328,1.152344 1.0000006,1.0000006 0 0 0 0.984375,0.849609 h 10.001953 a 1.0000006,1.0000006 0 0 0 1.005859,-0.996094 1.0000006,1.0000006 0 0 0 -1.005859,-1.005859 z" id="path1313" style="color:#000000;font-style:normal;font-variant:normal;font-weight:normal;font-stretch:normal;font-size:medium;line-height:normal;font-family:sans-serif;font-variant-ligatures:normal;font-variant-position:normal;font-variant-caps:normal;font-variant-numeric:normal;font-variant-alternates:normal;font-variant-east-asian:normal;font-feature-settings:normal;font-variation-settings:normal;text-indent:0;text-align:start;text-decoration:none;text-decoration-line:none;text-decoration-style:solid;text-decoration-color:#000000;letter-spacing:normal;word-spacing:normal;text-transform:none;writing-mode:lr-tb;direction:ltr;text-orientation:mixed;dominant-baseline:auto;baseline-shift:baseline;text-anchor:start;white-space:normal;shape-padding:0;shape-margin:0;inline-size:0;clip-rule:nonzero;display:inline;overflow:visible;visibility:visible;isolation:auto;mix-blend-mode:normal;color-interpolation:sRGB;color-interpolation-filters:linearRGB;solid-color:#000000;solid-opacity:1;vector-effect:none;fill:#006ef9;fill-opacity:1;fill-rule:nonzero;stroke:none;stroke-width:2;stroke-linecap:round;stroke-linejoin:round;stroke-miterlimit:4;stroke-dasharray:none;stroke-dashoffset:0;stroke-opacity:1;color-rendering:auto;image-rendering:auto;shape-rendering:auto;text-rendering:auto;enable-background:accumulate;stop-color:#000000" transform="scale(0.26458334)"/></g></g></svg>